<svg width="646" height="250" version="1.1" viewBox="0 0 171 66.1" xmlns="http://www.w3.org/2000/svg">
 <rect x="12" y="11.5" width="147" height="43.1" ry="5.32" style="stroke-miterlimit:8;stroke-width:1.06;stroke:#a5a5a5"/>
 <path d="m35.9 21.3v14.6l-6.68-6.7-1.7 1.7 9.58 9.58 9.58-9.58-1.69-1.69-6.7 6.68v-14.6zm-12.2 14.8-0.184 8.89 26.8-0.0251v-8.87h-2.22v6.65h-22.2v-6.65z" style="fill:#2196f3;stroke-width:1.52"/>
 <path d="m136 39.3v-11.9h2.84q2.02 0 3.21 1.26 1.2 1.25 1.2 3.69v2.02q0 2.44-1.2 3.69t-3.34 1.25zm1.51-10.6v9.35h1.2q1.59 0 2.31-0.901 0.729-0.909 0.746-2.68v-2.12q0-1.89-0.721-2.77t-2.2-0.877zm-12.1 10.6 3.84-11.9h1.29l3.84 11.9h-1.54l-0.934-3.12h-4.03l-0.934 3.12zm2.87-4.42h3.24l-1.62-5.42zm-4.1-0.508q0 2.53-1.07 3.81t-2.92 1.28q-1.76 0-2.88-1.25-1.11-1.25-1.14-3.69v-2.22q0-2.52 1.11-3.81t2.9-1.29q1.84 0 2.91 1.26t1.1 3.72zm-1.49-2.09q0-1.97-0.647-2.85-0.647-0.885-1.87-0.885-1.16 0-1.84 0.885-0.672 0.885-0.672 2.85v2.09q0 1.97 0.68 2.87 0.688 0.885 1.84 0.885 1.23 0 1.86-0.877 0.639-0.877 0.647-2.83zm-7.55 5.73v1.29h-6.19v-11.9h1.51v10.6zm-8.77-10.6v11.9h-1.52l-4.78-9.2v9.2h-1.51v-11.9h1.51l4.8 9.22v-9.22zm-9.53 0-2.37 11.9h-1.36l-1.98-8.69-0.123-0.705-0.123 0.705-2.07 8.69h-1.35l-2.38-11.9h1.5l1.49 8.16 0.156 1.34 0.238-1.17 1.91-8.32h1.25l1.85 8.32 0.238 1.21 0.172-1.38 1.46-8.15zm-13.4 7q0 2.53-1.07 3.81t-2.92 1.28q-1.76 0-2.88-1.25-1.11-1.25-1.14-3.69v-2.22q0-2.52 1.11-3.81t2.9-1.29q1.84 0 2.91 1.26t1.1 3.72zm-1.49-2.09q0-1.97-0.647-2.85-0.647-0.885-1.87-0.885-1.16 0-1.84 0.885-0.672 0.885-0.672 2.85v2.09q0 1.97 0.68 2.87 0.688 0.885 1.84 0.885 1.23 0 1.86-0.877 0.639-0.877 0.647-2.83zm-15.8 7.01v-11.9h2.84q2.02 0 3.21 1.26 1.2 1.25 1.2 3.69v2.02q0 2.44-1.2 3.69t-3.34 1.25zm1.51-10.6v9.35h1.2q1.59 0 2.31-0.901 0.729-0.909 0.746-2.68v-2.12q0-1.89-0.721-2.77t-2.2-0.877z" style="fill:#fff"/>
</svg>
